<?xml version="1.0" encoding="UTF-8"?><svg xmlns="http://www.w3.org/2000/svg" xmlns:xlink="http://www.w3.org/1999/xlink" viewBox="0 0 7500 2500"><defs><style>.cls-1,.cls-2,.cls-3{fill:none;}.cls-4{fill:url(#linear-gradient);}.cls-2{isolation:isolate;}.cls-5{fill:url(#linear-gradient-5);}.cls-5,.cls-6{mix-blend-mode:multiply;}.cls-6{fill:url(#linear-gradient-3);}.cls-7{fill:url(#linear-gradient-8);}.cls-8{fill:url(#linear-gradient-9);}.cls-9{fill:url(#linear-gradient-4);}.cls-10{fill:url(#linear-gradient-2);}.cls-11{fill:url(#linear-gradient-6);}.cls-12{fill:url(#linear-gradient-7);}.cls-3{clip-path:url(#clippath);}</style><clipPath id="clippath"><rect class="cls-1" y="0" width="7500" height="2500"/></clipPath><linearGradient id="linear-gradient" x1="3789.7" y1="-228.1" x2="3708.31" y2="2802.16" gradientUnits="userSpaceOnUse"><stop offset="0" stop-color="#f1f2f2"/><stop offset="1" stop-color="#fff"/></linearGradient><linearGradient id="linear-gradient-2" x1="5755.33" y1="935.28" x2="6062.12" y2="3433.36" gradientTransform="translate(11522.32 -641.98) rotate(135)" gradientUnits="userSpaceOnUse"><stop offset="0" stop-color="#fff"/><stop offset="1" stop-color="#f1f2f2"/></linearGradient><linearGradient id="linear-gradient-3" x1="7312.79" y1="2109.35" x2="4439.05" y2="1996.66" gradientTransform="translate(10176.5 8395.85) rotate(-135)" xlink:href="#linear-gradient-2"/><linearGradient id="linear-gradient-4" x1="1758.41" y1="-376.53" x2="1626.94" y2="1338.95" gradientTransform="translate(240.48 -1357.88) rotate(45)" xlink:href="#linear-gradient-2"/><linearGradient id="linear-gradient-5" x1="1911.81" y1="1938.64" x2="4159.46" y2="1262.47" gradientTransform="translate(5181.63 1510.7) rotate(135)" xlink:href="#linear-gradient-2"/><linearGradient id="linear-gradient-6" x1="812.16" y1="2758.4" x2="2552.68" y2="3209.19" gradientTransform="translate(3996.68 4042.12) rotate(135)" xlink:href="#linear-gradient-2"/><linearGradient id="linear-gradient-7" x1="7534.12" y1="2036.19" x2="9274.64" y2="2486.97" gradientTransform="translate(14961.11 -1943.92) rotate(135)" xlink:href="#linear-gradient-2"/><linearGradient id="linear-gradient-8" x1="4276.15" y1="1078.14" x2="4244.85" y2="-881.51" gradientTransform="translate(6745.41 -4223.92) rotate(135)" xlink:href="#linear-gradient-2"/><linearGradient id="linear-gradient-9" x1="-1398.97" y1="1162.63" x2="735.6" y2="348.86" gradientTransform="translate(-1961.33 1027.98) rotate(-135.08) skewX(-.17)" xlink:href="#linear-gradient-2"/></defs><g class="cls-2"><g id="Layer_1"><g id="Group"><g class="cls-3"><rect id="Bg" class="cls-4" y="0" width="7500" height="2500"/><rect class="cls-10" x="4527.31" y="698.55" width="2733.61" height="2733.61" rx="421.59" ry="421.59" transform="translate(8601.46 7693.56) rotate(-135)"/><rect class="cls-6" x="5460.28" y="723.5" width="2733.61" height="2733.61" rx="421.59" ry="421.59" transform="translate(13132.63 -1259.11) rotate(135)"/><rect class="cls-9" x="414.63" y="-1889.13" width="2689.44" height="3000.96" rx="421.59" ry="421.59" transform="translate(790.12 1130.21) rotate(-45)"/><rect class="cls-5" x="842.82" y="461.69" width="2870.24" height="2733.61" rx="421.59" ry="421.59" transform="translate(2595.74 4732.19) rotate(-135)"/><rect class="cls-11" x="-205.61" y="1481.99" width="2733.61" height="2733.61" rx="421.59" ry="421.59" transform="translate(-32.13 5684.29) rotate(-135)"/><rect class="cls-12" x="6516.35" y="759.78" width="2733.61" height="2733.61" rx="421.59" ry="421.59" transform="translate(11953.66 9204.54) rotate(-135)"/><rect class="cls-7" x="2880.7" y="-2081.75" width="2733.61" height="2733.61" rx="421.59" ry="421.59" transform="translate(7756.49 1782.96) rotate(-135)"/><rect class="cls-8" x="-2135.34" y="-444.43" width="2733.61" height="2725.52" rx="421.59" ry="421.59" transform="translate(-662.61 2111.13) rotate(135)"/></g></g></g></g></svg>